ffmpeg started on 2025-05-19 at 12:24:17
Report written to "D:\Convert\FFMetrics\reports\ssim_report-6.txt"
Log level: 32
Command line:
ffmpeg -hide_banner -nostdin -i "G:\\\xc0\xed\xe8\xec\xe5\\\xce\xed\xe3\xee\xe8\xed\xe3\xe8\\!_30_\xc2\xe5\xf1\xed\xe0_2023\\DreamCast\\\xd2\xe5\xed\xfc \xeb\xfe\xe1\xe2\xe8 \xe2 \xf2\xe0\xe9\xed\xee\xe9 \xea\xee\xec\xed\xe0\xf2\xe5\\[DC] Aiyou de Mishi - 09_Telegram_HEVC.mkv" -i "G:\\\xc0\xed\xe8\xec\xe5\\\xce\xed\xe3\xee\xe8\xed\xe3\xe8\\!_30_\xc2\xe5\xf1\xed\xe0_2023\\DreamCast\\\xd2\xe5\xed\xfc \xeb\xfe\xe1\xe2\xe8 \xe2 \xf2\xe0\xe9\xed\xee\xe9 \xea\xee\xec\xed\xe0\xf2\xe5\\[DC] Aiyou de Mishi - 09_Telegram.mp4" -lavfi "[0:v]settb=AVTB,setpts=PTS-STARTPTS,format=pix_fmts=yuv420p10,fps=24/1,scale=1920:1080:flags=bicubic[main];[1:v]settb=AVTB,setpts=PTS-STARTPTS,format=pix_fmts=yuv420p,fps=24/1,scale=1920:1080:flags=bicubic[ref];[main][ref]ssim=eof_action=endall:stats_file='D\\:/Convert/FFMetrics/logs/ssim_logfile-6.txt'" -f null -
Input #0, matroska,webm, from 'G:\Аниме\Онгоинги\!_30_Весна_2023\DreamCast\Тень любви в тайной комнате\[DC] Aiyou de Mishi - 09_Telegram_HEVC.mkv':
  Metadata:
    COMPATIBLE_BRANDS: isomiso2avc1mp41
    MAJOR_BRAND     : isom
    MINOR_VERSION   : 512
    ENCODER         : Lavf61.7.100
  Duration: 00:17:25.78, start: -0.021000, bitrate: 1367 kb/s
  Stream #0:0: Video: hevc (Main 10), yuv420p10le(tv, bt709, progressive), 1920x1080 [SAR 1:1 DAR 16:9], 24 fps, 24 tbr, 1k tbn (default)
      Metadata:
        HANDLER_NAME    : VideoHandler
        VENDOR_ID       : [0][0][0][0]
        ENCODER         : Lavc61.19.100 libx265
        BPS             : 1168183
        DURATION        : 00:17:25.666666666
        NUMBER_OF_FRAMES: 25096
        NUMBER_OF_BYTES : 152691174
        _STATISTICS_WRITING_APP: mkvpropedit v66.0.0 ('Josie') 64-bit
        _STATISTICS_WRITING_DATE_UTC: 2025-05-19 08:06:13
        _STATISTICS_TAGS: BPS DURATION NUMBER_OF_FRAMES NUMBER_OF_BYTES
  Stream #0:1: Audio: aac (LC), 48000 Hz, stereo, fltp (default)
      Metadata:
        HANDLER_NAME    : SoundHandler
        VENDOR_ID       : [0][0][0][0]
        ENCODER         : Lavc61.19.100 aac
        BPS             : 195091
        DURATION        : 00:17:25.760000000
        NUMBER_OF_FRAMES: 49021
        NUMBER_OF_BYTES : 25502415
        _STATISTICS_WRITING_APP: mkvpropedit v66.0.0 ('Josie') 64-bit
        _STATISTICS_WRITING_DATE_UTC: 2025-05-19 08:06:13
        _STATISTICS_TAGS: BPS DURATION NUMBER_OF_FRAMES NUMBER_OF_BYTES
Input #1, mov,mp4,m4a,3gp,3g2,mj2, from 'G:\Аниме\Онгоинги\!_30_Весна_2023\DreamCast\Тень любви в тайной комнате\[DC] Aiyou de Mishi - 09_Telegram.mp4':
  Metadata:
    major_brand     : isom
    minor_version   : 512
    compatible_brands: isomiso2avc1mp41
    encoder         : Lavf60.4.101
  Duration: 00:17:25.76, start: 0.000000, bitrate: 3569 kb/s
  Stream #1:0[0x1](und): Video: h264 (Main) (avc1 / 0x31637661), yuv420p(tv, bt709, progressive), 1920x1080 [SAR 1:1 DAR 16:9], 3369 kb/s, 24 fps, 24 tbr, 12288 tbn (default)
      Metadata:
        handler_name    : VideoHandler
        vendor_id       : [0][0][0][0]
        encoder         : Lavc60.9.100 h264_qsv
  Stream #1:1[0x2](und): Audio: aac (LC) (mp4a / 0x6134706D), 48000 Hz, stereo, fltp, 195 kb/s (default)
      Metadata:
        handler_name    : SoundHandler
        vendor_id       : [0][0][0][0]
Stream mapping:
  Stream #0:0 (hevc) -> settb:default
  Stream #1:0 (h264) -> settb:default
  ssim:default -> Stream #0:0 (wrapped_avframe)
  Stream #0:1 -> #0:1 (aac (native) -> pcm_s16le (native))
Output #0, null, to 'pipe:':
  Metadata:
    COMPATIBLE_BRANDS: isomiso2avc1mp41
    MAJOR_BRAND     : isom
    MINOR_VERSION   : 512
    encoder         : Lavf61.7.100
  Stream #0:0: Video: wrapped_avframe, yuv420p10le(tv, bt709, progressive), 1920x1080 [SAR 1:1 DAR 16:9], q=2-31, 200 kb/s, 24 fps, 24 tbn
      Metadata:
        encoder         : Lavc61.19.100 wrapped_avframe
  Stream #0:1: Audio: pcm_s16le, 48000 Hz, stereo, s16, 1536 kb/s (default)
      Metadata:
        HANDLER_NAME    : SoundHandler
        VENDOR_ID       : [0][0][0][0]
        _STATISTICS_TAGS: BPS DURATION NUMBER_OF_FRAMES NUMBER_OF_BYTES
        BPS             : 195091
        DURATION        : 00:17:25.760000000
        NUMBER_OF_FRAMES: 49021
        NUMBER_OF_BYTES : 25502415
        _STATISTICS_WRITING_APP: mkvpropedit v66.0.0 ('Josie') 64-bit
        _STATISTICS_WRITING_DATE_UTC: 2025-05-19 08:06:13
        encoder         : Lavc61.19.100 pcm_s16le
frame=  182 fps=0.0 q=-0.0 size=N/A time=00:00:07.58 bitrate=N/A speed=14.5x    frame=  367 fps=357 q=-0.0 size=N/A time=00:00:15.29 bitrate=N/A speed=14.9x    frame=  618 fps=399 q=-0.0 size=N/A time=00:00:25.75 bitrate=N/A speed=16.6x    frame=  823 fps=397 q=-0.0 size=N/A time=00:00:34.29 bitrate=N/A speed=16.6x    frame= 1066 fps=413 q=-0.0 size=N/A time=00:00:44.41 bitrate=N/A speed=17.2x    frame= 1280 fps=413 q=-0.0 size=N/A time=00:00:53.33 bitrate=N/A speed=17.2x    frame= 1522 fps=422 q=-0.0 size=N/A time=00:01:03.41 bitrate=N/A speed=17.6x    frame= 1761 fps=426 q=-0.0 size=N/A time=00:01:13.37 bitrate=N/A speed=17.8x    frame= 1975 fps=426 q=-0.0 size=N/A time=00:01:22.29 bitrate=N/A speed=17.7x    frame= 2181 fps=423 q=-0.0 size=N/A time=00:01:30.87 bitrate=N/A speed=17.6x    frame= 2320 fps=409 q=-0.0 size=N/A time=00:01:36.66 bitrate=N/A speed=17.1x    frame= 2547 fps=411 q=-0.0 size=N/A time=00:01:46.12 bitrate=N/A speed=17.1x    frame= 2738 fps=409 q=-0.0 size=N/A time=00:01:54.08 bitrate=N/A speed=  17x    frame= 2883 fps=399 q=-0.0 size=N/A time=00:02:00.12 bitrate=N/A speed=16.6x    frame= 3076 fps=398 q=-0.0 size=N/A time=00:02:08.16 bitrate=N/A speed=16.6x    frame= 3281 fps=398 q=-0.0 size=N/A time=00:02:16.70 bitrate=N/A speed=16.6x    frame= 3499 fps=399 q=-0.0 size=N/A time=00:02:25.79 bitrate=N/A speed=16.6x    frame= 3664 fps=395 q=-0.0 size=N/A time=00:02:32.66 bitrate=N/A speed=16.4x    frame= 3884 fps=396 q=-0.0 size=N/A time=00:02:41.83 bitrate=N/A speed=16.5x    frame= 4138 fps=401 q=-0.0 size=N/A time=00:02:52.41 bitrate=N/A speed=16.7x    frame= 4362 fps=403 q=-0.0 size=N/A time=00:03:01.75 bitrate=N/A speed=16.8x    frame= 4610 fps=406 q=-0.0 size=N/A time=00:03:12.08 bitrate=N/A speed=16.9x    frame= 4858 fps=410 q=-0.0 size=N/A time=00:03:22.41 bitrate=N/A speed=17.1x    frame= 5075 fps=410 q=-0.0 size=N/A time=00:03:31.45 bitrate=N/A speed=17.1x    frame= 5342 fps=414 q=-0.0 size=N/A time=00:03:42.58 bitrate=N/A speed=17.3x    frame= 5582 fps=417 q=-0.0 size=N/A time=00:03:52.58 bitrate=N/A speed=17.4x    frame= 5857 fps=421 q=-0.0 size=N/A time=00:04:04.04 bitrate=N/A speed=17.5x    frame= 6107 fps=423 q=-0.0 size=N/A time=00:04:14.45 bitrate=N/A speed=17.6x    frame= 6344 fps=424 q=-0.0 size=N/A time=00:04:24.33 bitrate=N/A speed=17.7x    frame= 6619 fps=428 q=-0.0 size=N/A time=00:04:35.79 bitrate=N/A speed=17.8x    frame= 6860 fps=429 q=-0.0 size=N/A time=00:04:45.83 bitrate=N/A speed=17.9x    frame= 7115 fps=431 q=-0.0 size=N/A time=00:04:56.45 bitrate=N/A speed=  18x    frame= 7351 fps=432 q=-0.0 size=N/A time=00:05:06.29 bitrate=N/A speed=  18x    frame= 7598 fps=433 q=-0.0 size=N/A time=00:05:16.58 bitrate=N/A speed=18.1x    frame= 7865 fps=436 q=-0.0 size=N/A time=00:05:27.70 bitrate=N/A speed=18.2x    frame= 8136 fps=438 q=-0.0 size=N/A time=00:05:39.00 bitrate=N/A speed=18.3x    frame= 8343 fps=437 q=-0.0 size=N/A time=00:05:47.62 bitrate=N/A speed=18.2x    frame= 8526 fps=435 q=-0.0 size=N/A time=00:05:55.25 bitrate=N/A speed=18.1x    frame= 8756 fps=435 q=-0.0 size=N/A time=00:06:04.83 bitrate=N/A speed=18.1x    frame= 9002 fps=436 q=-0.0 size=N/A time=00:06:15.08 bitrate=N/A speed=18.2x    frame= 9239 fps=437 q=-0.0 size=N/A time=00:06:24.95 bitrate=N/A speed=18.2x    frame= 9499 fps=439 q=-0.0 size=N/A time=00:06:35.79 bitrate=N/A speed=18.3x    frame= 9759 fps=440 q=-0.0 size=N/A time=00:06:46.62 bitrate=N/A speed=18.3x    frame=10018 fps=442 q=-0.0 size=N/A time=00:06:57.41 bitrate=N/A speed=18.4x    frame=10274 fps=443 q=-0.0 size=N/A time=00:07:08.08 bitrate=N/A speed=18.5x    frame=10548 fps=445 q=-0.0 size=N/A time=00:07:19.50 bitrate=N/A speed=18.5x    frame=10818 fps=446 q=-0.0 size=N/A time=00:07:30.75 bitrate=N/A speed=18.6x    frame=11082 fps=448 q=-0.0 size=N/A time=00:07:41.75 bitrate=N/A speed=18.7x    frame=11350 fps=449 q=-0.0 size=N/A time=00:07:52.91 bitrate=N/A speed=18.7x    frame=11584 fps=449 q=-0.0 size=N/A time=00:08:02.66 bitrate=N/A speed=18.7x    frame=11841 fps=450 q=-0.0 size=N/A time=00:08:13.37 bitrate=N/A speed=18.8x    frame=12111 fps=452 q=-0.0 size=N/A time=00:08:24.62 bitrate=N/A speed=18.8x    frame=12371 fps=453 q=-0.0 size=N/A time=00:08:35.45 bitrate=N/A speed=18.9x    frame=12613 fps=453 q=-0.0 size=N/A time=00:08:45.54 bitrate=N/A speed=18.9x    frame=12881 fps=454 q=-0.0 size=N/A time=00:08:56.70 bitrate=N/A speed=18.9x    frame=13142 fps=455 q=-0.0 size=N/A time=00:09:07.58 bitrate=N/A speed=  19x    frame=13398 fps=456 q=-0.0 size=N/A time=00:09:18.25 bitrate=N/A speed=  19x    frame=13666 fps=457 q=-0.0 size=N/A time=00:09:29.41 bitrate=N/A speed=  19x    frame=13828 fps=455 q=-0.0 size=N/A time=00:09:36.16 bitrate=N/A speed=18.9x    frame=14072 fps=455 q=-0.0 size=N/A time=00:09:46.33 bitrate=N/A speed=18.9x    frame=14313 fps=455 q=-0.0 size=N/A time=00:09:56.37 bitrate=N/A speed=  19x    frame=14521 fps=454 q=-0.0 size=N/A time=00:10:05.04 bitrate=N/A speed=18.9x    frame=14710 fps=453 q=-0.0 size=N/A time=00:10:12.91 bitrate=N/A speed=18.9x    frame=14945 fps=453 q=-0.0 size=N/A time=00:10:22.70 bitrate=N/A speed=18.9x    frame=15204 fps=454 q=-0.0 size=N/A time=00:10:33.50 bitrate=N/A speed=18.9x    frame=15474 fps=455 q=-0.0 size=N/A time=00:10:44.75 bitrate=N/A speed=18.9x    frame=15726 fps=455 q=-0.0 size=N/A time=00:10:55.25 bitrate=N/A speed=  19x    frame=15906 fps=454 q=-0.0 size=N/A time=00:11:02.75 bitrate=N/A speed=18.9x    frame=16184 fps=455 q=-0.0 size=N/A time=00:11:14.33 bitrate=N/A speed=18.9x    frame=16402 fps=454 q=-0.0 size=N/A time=00:11:23.41 bitrate=N/A speed=18.9x    frame=16635 fps=454 q=-0.0 size=N/A time=00:11:33.12 bitrate=N/A speed=18.9x    frame=16878 fps=455 q=-0.0 size=N/A time=00:11:43.25 bitrate=N/A speed=18.9x    frame=17144 fps=455 q=-0.0 size=N/A time=00:11:54.33 bitrate=N/A speed=  19x    frame=17390 fps=456 q=-0.0 size=N/A time=00:12:04.58 bitrate=N/A speed=  19x    frame=17620 fps=456 q=-0.0 size=N/A time=00:12:14.16 bitrate=N/A speed=  19x    frame=17840 fps=455 q=-0.0 size=N/A time=00:12:23.33 bitrate=N/A speed=  19x    frame=18068 fps=455 q=-0.0 size=N/A time=00:12:32.83 bitrate=N/A speed=  19x    frame=18295 fps=455 q=-0.0 size=N/A time=00:12:42.29 bitrate=N/A speed=  19x    frame=18521 fps=455 q=-0.0 size=N/A time=00:12:51.70 bitrate=N/A speed=18.9x    frame=18759 fps=455 q=-0.0 size=N/A time=00:13:01.62 bitrate=N/A speed=18.9x    frame=18947 fps=454 q=-0.0 size=N/A time=00:13:09.45 bitrate=N/A speed=18.9x    frame=19204 fps=454 q=-0.0 size=N/A time=00:13:20.16 bitrate=N/A speed=18.9x    frame=19453 fps=455 q=-0.0 size=N/A time=00:13:30.54 bitrate=N/A speed=18.9x    frame=19728 fps=455 q=-0.0 size=N/A time=00:13:42.00 bitrate=N/A speed=  19x    frame=20000 fps=456 q=-0.0 size=N/A time=00:13:53.33 bitrate=N/A speed=  19x    frame=20276 fps=457 q=-0.0 size=N/A time=00:14:04.83 bitrate=N/A speed=  19x    frame=20531 fps=458 q=-0.0 size=N/A time=00:14:15.45 bitrate=N/A speed=19.1x    frame=20799 fps=458 q=-0.0 size=N/A time=00:14:26.66 bitrate=N/A speed=19.1x    frame=21046 fps=459 q=-0.0 size=N/A time=00:14:36.91 bitrate=N/A speed=19.1x    frame=21315 fps=459 q=-0.0 size=N/A time=00:14:48.12 bitrate=N/A speed=19.1x    frame=21547 fps=459 q=-0.0 size=N/A time=00:14:57.79 bitrate=N/A speed=19.1x    frame=21794 fps=459 q=-0.0 size=N/A time=00:15:08.08 bitrate=N/A speed=19.1x    frame=22056 fps=460 q=-0.0 size=N/A time=00:15:19.00 bitrate=N/A speed=19.2x    frame=22253 fps=459 q=-0.0 size=N/A time=00:15:27.20 bitrate=N/A speed=19.1x    frame=22412 fps=458 q=-0.0 size=N/A time=00:15:33.83 bitrate=N/A speed=19.1x    frame=22679 fps=458 q=-0.0 size=N/A time=00:15:44.95 bitrate=N/A speed=19.1x    frame=22952 fps=459 q=-0.0 size=N/A time=00:15:56.33 bitrate=N/A speed=19.1x    frame=23146 fps=458 q=-0.0 size=N/A time=00:16:04.41 bitrate=N/A speed=19.1x    frame=23300 fps=456 q=-0.0 size=N/A time=00:16:10.83 bitrate=N/A speed=  19x    frame=23468 fps=455 q=-0.0 size=N/A time=00:16:17.83 bitrate=N/A speed=  19x    frame=23696 fps=455 q=-0.0 size=N/A time=00:16:27.33 bitrate=N/A speed=  19x    frame=23919 fps=455 q=-0.0 size=N/A time=00:16:36.62 bitrate=N/A speed=18.9x    frame=24122 fps=454 q=-0.0 size=N/A time=00:16:45.08 bitrate=N/A speed=18.9x    frame=24343 fps=454 q=-0.0 size=N/A time=00:16:54.29 bitrate=N/A speed=18.9x    frame=24541 fps=453 q=-0.0 size=N/A time=00:17:02.54 bitrate=N/A speed=18.9x    frame=24750 fps=453 q=-0.0 size=N/A time=00:17:11.25 bitrate=N/A speed=18.9x    frame=24958 fps=452 q=-0.0 size=N/A time=00:17:19.91 bitrate=N/A speed=18.8x    [Parsed_ssim_10 @ 00000282e8018440] SSIM Y:0.993327 (21.757063) U:0.995815 (23.783278) V:0.996018 (23.999393) All:0.994191 (22.358648)
[out#0/null @ 00000282db46d500] video:10783KiB audio:196084KiB subtitle:0KiB other streams:0KiB global headers:0KiB muxing overhead: unknown
frame=25096 fps=453 q=-0.0 Lsize=N/A time=00:17:25.66 bitrate=N/A speed=18.9x    
